<?xml version="1.0" encoding="UTF-8" standalone="no"?>
<!-- Created with Inkscape (http://www.inkscape.org/) -->

<svg
   width="210mm"
   height="297mm"
   viewBox="0 0 210 297"
   version="1.1"
   id="svg7185"
   inkscape:version="1.2.2 (732a01da63, 2022-12-09)"
   sodipodi:docname="compte.svg"
   xmlns:inkscape="http://www.inkscape.org/namespaces/inkscape"
   xmlns:sodipodi="http://sodipodi.sourceforge.net/DTD/sodipodi-0.dtd"
   xmlns="http://www.w3.org/2000/svg"
   xmlns:svg="http://www.w3.org/2000/svg">
  <sodipodi:namedview
     id="namedview7187"
     pagecolor="#ffffff"
     bordercolor="#000000"
     borderopacity="0.25"
     inkscape:showpageshadow="2"
     inkscape:pageopacity="0.0"
     inkscape:pagecheckerboard="0"
     inkscape:deskcolor="#d1d1d1"
     inkscape:document-units="mm"
     showgrid="false"
     inkscape:zoom="0.73851712"
     inkscape:cx="397.41801"
     inkscape:cy="561.93687"
     inkscape:window-width="1920"
     inkscape:window-height="1009"
     inkscape:window-x="-8"
     inkscape:window-y="-8"
     inkscape:window-maximized="1"
     inkscape:current-layer="layer1" />
  <defs
     id="defs7182" />
  <g
     inkscape:label="Calque 1"
     inkscape:groupmode="layer"
     id="layer1">
    <path
       style="fill:#2b0000;stroke-width:0.0208405"
       d="m 47.161704,70.23835 c -0.25999,-0.0546 -0.44509,-0.13143 -0.65502,-0.27186 -0.33276,-0.22257 -0.56967,-0.53366 -0.70143,-0.92104 -0.0869,-0.25544 -0.0972,-0.41301 -0.0864,-1.31204 0.009,-0.7175 0.0166,-0.88054 0.0542,-1.12096 0.1094,-0.69918 0.30256,-1.28976 0.62022,-1.89631 0.77271,-1.47541 2.17469,-2.57374 3.80192,-2.97848 0.74292,-0.18479 1.59181,-0.21856 2.35376,-0.0936 1.4838,0.24327 2.84265,1.07188 3.75608,2.29042 0.50709,0.67648 0.87751,1.49585 1.04863,2.31963 0.10072,0.48485 0.11673,0.73543 0.10901,1.70556 -0.007,0.87036 -0.008,0.8969 -0.0557,1.03906 -0.20557,0.61687 -0.65542,1.04485 -1.28741,1.22481 l -0.16315,0.0465 -4.30357,0.004 c -4.14849,0.004 -4.31033,0.002 -4.49114,-0.0355 z m 4.11237,-9.08718 c -1.5672,-0.13944 -2.85724,-1.4036 -3.04014,-2.97914 -0.0329,-0.28355 -0.0138,-0.77917 0.0404,-1.04517 0.26028,-1.27863 1.22811,-2.3076 2.46864,-2.62461 0.2946,-0.0753 0.51419,-0.10161 0.8505,-0.10199 0.40091,-5.3e-4 0.70979,0.048 1.06781,0.16755 0.52053,0.17378 0.91456,0.4207 1.32745,0.83182 0.38402,0.38237 0.64832,0.80369 0.81356,1.29691 0.23946,0.71473 0.23872,1.43967 -0.002,2.16557 -0.42007,1.26565 -1.56736,2.16981 -2.90662,2.29066 -0.23861,0.0215 -0.36301,0.0212 -0.61939,-0.002 z"
       id="path5638" />
  </g>
</svg>
