<svg version="1.1" id="svg7918" inkscape:version="1.2.2 (732a01da63, 2022-12-09)" sodipodi:docname="home.svg" xmlns:inkscape="http://www.inkscape.org/namespaces/inkscape" xmlns:sodipodi="http://sodipodi.sourceforge.net/DTD/sodipodi-0.dtd" xmlns="http://www.w3.org/2000/svg" xmlns:svg="http://www.w3.org/2000/svg" viewBox="30.44 21.41 27.26 22.71">  
    <sodipodi:namedview id="namedview7920" pagecolor="#ffffff" bordercolor="#000000" borderopacity="0.25" inkscape:showpageshadow="2" inkscape:pageopacity="0.0" inkscape:pagecheckerboard="0" inkscape:deskcolor="#d1d1d1" inkscape:document-units="mm" showgrid="false" inkscape:zoom="0.73851712" inkscape:cx="397.41801" inkscape:cy="561.93687" inkscape:window-width="1920" inkscape:window-height="1009" inkscape:window-x="-8" inkscape:window-y="-8" inkscape:window-maximized="1" inkscape:current-layer="layer1"></sodipodi:namedview>   
    <defs id="defs7915"></defs>   
    <g inkscape:label="Calque 1" inkscape:groupmode="layer" id="layer1">     
        <g id="g3409" transform="matrix(0.04891579,0,0,0.04891579,24.303087,13.035156)">       
            <path style="fill:#000000;stroke-width:0.561404" d="m 302.6851,627.18149 c -1.69825,-0.54804 -3.86066,-1.40025 -4.80536,-1.89384 -2.30402,-1.20381 -6.18715,-5.14913 -7.83337,-7.95879 -3.19019,-5.44483 -3.08057,-2.48281 -3.08057,-83.24362 v -74.26801 h 7.29824 7.29825 v 73.84259 c 0,81.28908 -0.20666,76.60013 3.47498,78.84479 1.79683,1.09546 2.7662,1.13302 29.28228,1.1351 29.97286,0 29.96734,0 32.19232,-3.27439 0.95074,-1.40031 1.03319,-4.17426 1.29603,-43.60073 l 0.28071,-42.10526 1.50459,-3.21014 c 2.10124,-4.48312 6.04327,-8.49805 10.49541,-10.68949 l 3.69684,-1.81967 h 20.50245 20.50246 l 3.15573,1.54976 c 4.9256,2.41893 8.03581,5.51154 10.44576,10.38666 l 2.11781,4.28414 0.2807,41.85462 c 0.3052,45.5077 0.14573,43.45925 3.5446,45.53173 1.70652,1.0405 3.04795,1.09075 29.18504,1.09277 29.76436,0 29.26347,0.0516 31.78219,-3.15015 l 1.17238,-1.49041 v -74.59097 -74.59095 h 7.30619 7.3062 l -0.15461,75.64912 c -0.12245,59.91556 -0.30498,76.08786 -0.87762,77.75871 -1.18464,3.45639 -5.25717,8.88185 -8.17784,10.89459 -1.50186,1.03501 -4.42281,2.39579 -6.49099,3.02395 -3.60899,1.09619 -4.9449,1.1356 -33.19547,0.97807 -27.57313,-0.15371 -29.59497,-0.2323 -31.96147,-1.24272 -6.36048,-2.71568 -11.06949,-7.73855 -12.96513,-13.82928 -1.01028,-3.24597 -1.06996,-5.67494 -1.06996,-43.5461 0,-44.2032 0.0979,-42.93222 -3.47499,-45.11055 -1.75393,-1.06934 -2.79835,-1.13312 -18.58798,-1.1351 -18.50969,-0.002 -19.15097,0.10497 -21.01525,3.51618 -0.91571,1.67555 -1.01353,5.02975 -1.27266,43.63962 l -0.2807,41.82456 -1.51749,3.23829 c -2.75093,5.87048 -8.76798,10.70383 -15.16102,12.17852 -1.4255,0.32882 -13.9852,0.549 -30.76009,0.53929 -25.58979,-0.0152 -28.65159,-0.11352 -31.43859,-1.01289 z" id="path2896" sodipodi:nodetypes="sssscccssccscsscccsscsscscccccssssssssscsscsscs"></path>       
            <g id="g2924" style="stroke-width:14.1;stroke-dasharray:none" transform="translate(0,20)">         
                <path style="fill:none;stroke:#000000;stroke-width:14.1;stroke-dasharray:none" d="M 538.52445,471.34468 404.02616,295.27121 269.52786,471.34468" id="path2898-6" sodipodi:nodetypes="ccc"></path>       
            </g>     
        </g>   
    </g> 
</svg>