<svg version="1.1" id="svg8651" inkscape:version="1.2.2 (732a01da63, 2022-12-09)" sodipodi:docname="tshirt.svg" xmlns:inkscape="http://www.inkscape.org/namespaces/inkscape" xmlns:sodipodi="http://sodipodi.sourceforge.net/DTD/sodipodi-0.dtd" xmlns="http://www.w3.org/2000/svg" xmlns:svg="http://www.w3.org/2000/svg" viewBox="46.71 26.1 19.07 15.87">   <sodipodi:namedview id="namedview8653" pagecolor="#ffffff" bordercolor="#000000" borderopacity="0.25" inkscape:showpageshadow="2" inkscape:pageopacity="0.0" inkscape:pagecheckerboard="0" inkscape:deskcolor="#d1d1d1" inkscape:document-units="mm" showgrid="false" inkscape:zoom="0.73851712" inkscape:cx="398.09504" inkscape:cy="561.25984" inkscape:window-width="1419" inkscape:window-height="1032" inkscape:window-x="52" inkscape:window-y="0" inkscape:window-maximized="0" inkscape:current-layer="layer1"></sodipodi:namedview>   <defs id="defs8648"></defs>   <g inkscape:label="Calque 1" inkscape:groupmode="layer" id="layer1">     <path style="fill:#000000;stroke-width:0.0337928" d="m 50.594338,41.933803 c 0.325051,0.0162 -0.599585,-0.37497 -0.735108,-0.70515 l -0.07241,-0.17642 -0.0089,-2.37387 -0.0089,-5.54886 -1.224489,-0.01 c -1.117846,-0.009 -1.234792,-0.0155 -1.342763,-0.0729 -0.1651,-0.0878 -0.330782,-0.25084 -0.416922,-0.41018 -0.07244,-0.13401 -0.07307,-0.15158 -0.07307,-2.04445 0,-1.90654 1.22e-4,-1.909485 0.07487,-2.049272 0.04118,-0.07699 0.136917,-0.193096 0.212754,-0.258012 0.148326,-0.126962 0.07808,-0.100488 2.26372,-0.853106 0.678386,-0.233601 1.491946,-0.515173 1.807906,-0.625713 0.315957,-0.110543 0.905211,-0.315138 1.309441,-0.45465 l 0.734968,-0.253664 h 3.12883 3.128833 l 0.52924,0.183833 c 1.823543,0.633412 3.653425,1.267462 4.887791,1.693614 0.623644,0.215307 0.764524,0.303866 0.907092,0.570211 0.0726,0.135631 0.07372,0.161978 0.08353,1.962274 0.0068,1.241055 -0.0019,1.872295 -0.02705,1.973265 -0.05543,0.22243 -0.204711,0.41471 -0.41044,0.52866 l -0.180727,0.10011 -1.224586,0.01 -1.224587,0.01 -0.0089,5.56576 -0.0089,2.39076 -0.0899,0.19178 c -0.120227,0.25647 -0.332071,0.47918 -0.564272,0.59321 l -0.190643,0.0936 -5.55888,0.006 c -4.459988,0.005 -5.586298,-0.002 -5.697561,-0.0372 z m 11.049011,-0.59244 c 0.132921,0 0.295309,-0.15933 0.370853,-0.28913 0.0293,-0.0504 0.04363,1.64122 0.05623,-2.64871 l 0.01688,-5.75612 0.09481,-0.0816 0.09482,-0.0816 h 1.372503 c 1.229706,0 1.378931,-0.006 1.4343,-0.0559 0.05836,-0.0528 0.0618,-0.15386 0.0618,-1.818344 0,-1.366221 -0.0096,-1.775534 -0.04268,-1.820778 -0.0264,-0.03612 -1.066403,-0.412168 -2.728751,-0.986679 -1.477341,-0.510574 -2.705311,-0.93201 -2.728825,-0.936529 -0.02585,-0.0049 -0.08004,0.09878 -0.136975,0.262128 -0.258646,0.742129 -0.879528,1.288203 -1.824736,1.604875 -0.465177,0.15585 -0.865531,0.214614 -1.45928,0.214196 -0.96347,-5.29e-4 -1.698937,-0.206322 -2.351635,-0.657532 -0.512445,-0.354253 -0.793734,-0.758129 -0.97957,-1.406467 -0.0091,-0.03177 -0.05613,-0.0259 -0.190587,0.02376 -0.09817,0.03626 -1.326602,0.462073 -2.729838,0.946242 -1.528059,0.527241 -2.568284,0.903187 -2.593584,0.937342 -0.03251,0.0439 -0.04224,0.460121 -0.04224,1.807785 0,1.705701 0.0016,1.752491 0.06758,1.818341 0.06536,0.0654 0.112641,0.0676 1.438785,0.0676 h 1.371201 l 0.09878,0.0988 0.09878,0.0988 v 5.69774 c 0,4.80098 0.0074,2.54052 0.0472,2.63571 0.05496,0.13154 0.249002,0.29794 0.383196,0.32861 0.148328,0.0339 10.650659,-0.003 10.800972,-0.003 z M 56.781886,28.292541 c 0.770639,-0.110535 1.403472,-0.396446 1.780551,-0.804444 0.172773,-0.186942 0.335378,-0.465566 0.383426,-0.656998 l 0.02299,-0.09154 h -2.727632 -2.727632 l 0.0218,0.09293 c 0.08334,0.35483 0.398265,0.762833 0.774608,1.003577 0.607123,0.388374 1.629891,0.577247 2.47188,0.456478 z" id="path7104" sodipodi:nodetypes="sscccsssscsssscccsssssscccccsscscssscccssssssssssssssssscccsssssssscccssss"></path>   </g> </svg>